<?xml version="1.0" encoding="UTF-8"?>
<svg version="1.1" xmlns="http://www.w3.org/2000/svg" width="2508" height="627">
<path d="M0 0 C827.64 0 1655.28 0 2508 0 C2508 206.91 2508 413.82 2508 627 C1680.36 627 852.72 627 0 627 C0 420.09 0 213.18 0 0 Z " fill="#FDFDFD" transform="translate(0,0)"/>
<path d="M0 0 C0.83666199 -0.00570007 1.67332397 -0.01140015 2.53533936 -0.01727295 C4.30707551 -0.02669336 6.07882895 -0.03324513 7.85058594 -0.03710938 C10.49707964 -0.04669465 13.1427547 -0.07769455 15.7890625 -0.109375 C29.24008149 -0.19307023 42.51543041 0.67600266 55.296875 5.203125 C57.56549688 5.83610508 59.83644689 6.4607865 62.109375 7.078125 C67.81086986 8.70542666 72.96967743 10.64057321 78.296875 13.203125 C79.53925964 13.75380173 80.78287061 14.30171572 82.02734375 14.84765625 C103.39203204 24.35805027 121.44469591 38.15080383 138.296875 54.203125 C136.71078143 58.32891441 133.7056685 60.83709013 130.484375 63.703125 C129.31190992 64.75845938 128.14005337 65.81447015 126.96875 66.87109375 C126.36482422 67.41427246 125.76089844 67.95745117 125.13867188 68.51708984 C123.28880794 70.21050982 121.48441132 71.94201412 119.6875 73.69140625 C119.10846924 74.24828125 118.52943848 74.80515625 117.93286133 75.37890625 C116.81691662 76.45426823 115.70963471 77.53870697 114.61206055 78.6328125 C110.89651415 82.17198989 110.89651415 82.17198989 108.265625 82.30859375 C105.48413872 80.74676713 103.25545633 78.80985594 100.859375 76.703125 C70.86700091 51.02177926 36.53082223 40.99494368 -2.625 43.48828125 C-34.52802157 46.03821412 -65.52057084 63.25277242 -86.390625 87.328125 C-108.04772004 113.37071221 -118.36910157 146.13599886 -115.359375 179.734375 C-114.52500233 186.57623088 -113.19578618 192.7948665 -110.703125 199.203125 C-110.29191406 200.38261719 -109.88070312 201.56210937 -109.45703125 202.77734375 C-102.88931058 221.43553694 -93.30139436 236.759625 -79.703125 251.203125 C-79.15269531 251.81800781 -78.60226563 252.43289063 -78.03515625 253.06640625 C-59.25448755 273.2382356 -27.35035775 286.47342106 -0.24555969 287.61477661 C3.45707523 287.71214248 7.15568748 287.72609054 10.859375 287.703125 C11.64068787 287.70103027 12.42200073 287.69893555 13.22698975 287.69677734 C33.90665374 287.58306315 51.83221281 283.62693789 70.296875 274.203125 C71.31910156 273.6978125 72.34132813 273.1925 73.39453125 272.671875 C76.08301645 271.32226615 76.08301645 271.32226615 78.45141602 269.8203125 C81.296875 268.203125 81.296875 268.203125 84.60107422 267.00976562 C88.88832262 265.02963044 91.87879187 263.34702529 94.296875 259.203125 C96.56659105 250.02771568 95.88270106 240.16790105 95.65307617 230.77142334 C95.58006944 227.21173335 95.58140925 223.65211741 95.57617188 220.09179688 C95.55512751 213.12693296 95.44548876 206.16642443 95.296875 199.203125 C89.026875 199.533125 82.756875 199.863125 76.296875 200.203125 C76.4103125 201.60304688 76.52375 203.00296875 76.640625 204.4453125 C77.24674792 218.59326352 77.24674792 218.59326352 73.90478516 223.06640625 C70.21533663 226.26330875 65.92738315 228.2987401 61.47900391 230.24169922 C59.39781294 231.15865268 57.40664356 232.16515755 55.40234375 233.23828125 C49.54924027 236.35379391 43.61123016 239.16856493 37.296875 241.203125 C36.53366943 241.45489502 35.77046387 241.70666504 34.98413086 241.96606445 C27.59982295 244.20585782 20.73796683 244.7104003 13.046875 244.640625 C11.85537842 244.63160156 10.66388184 244.62257813 9.4362793 244.61328125 C-12.0494138 244.19138996 -33.59296618 234.71034122 -48.73828125 219.203125 C-63.25381803 203.37223273 -71.65393288 182.35459454 -71.04296875 160.82421875 C-69.4346176 143.68695997 -62.9893815 128.23918871 -51.703125 115.203125 C-51.06375 114.336875 -50.424375 113.470625 -49.765625 112.578125 C-36.97020138 97.84400084 -17.08791405 87.32399908 2.296875 85.203125 C24.38522381 83.75747871 42.87355266 88.39772367 61.484375 100.53125 C64.69919822 102.55250101 64.69919822 102.55250101 68.296875 103.203125 C70.52910046 101.79544228 70.52910046 101.79544228 72.546875 99.765625 C73.25328125 99.10691406 73.9596875 98.44820313 74.6875 97.76953125 C75.21859375 97.25261719 75.7496875 96.73570312 76.296875 96.203125 C72.69816971 87.41692433 60.37404109 82.65340436 52.24121094 79.00537109 C47.57265147 77.07909203 42.73660659 75.65099518 37.890625 74.24609375 C35.72458829 73.61747223 33.57143327 72.93663747 31.4543457 72.15893555 C16.94908776 67.76799108 -2.48121554 70.25899725 -16.703125 75.203125 C-17.39905762 75.43918457 -18.09499023 75.67524414 -18.81201172 75.91845703 C-34.10256856 81.25861773 -47.23668488 89.7570878 -58.703125 101.203125 C-59.38632813 101.87472656 -60.06953125 102.54632813 -60.7734375 103.23828125 C-78.82996384 122.17993143 -85.8131158 147.48432191 -85.23828125 173.05859375 C-83.90929849 198.06278815 -68.79057517 220.8079056 -50.703125 237.203125 C-39.93643952 246.12043083 -26.15781649 252.59376553 -12.703125 256.203125 C-12.08993408 256.37827637 -11.47674316 256.55342773 -10.8449707 256.73388672 C15.86969153 263.63653426 42.30282773 256.64527143 65.29467773 243.14306641 C66.81487021 242.23842281 68.33021074 241.32556571 69.84008789 240.40380859 C75.10154508 237.203125 75.10154508 237.203125 77.296875 237.203125 C78.286875 241.493125 79.276875 245.783125 80.296875 250.203125 C67.78231123 258.54616751 54.96961108 265.51713426 40.296875 269.203125 C39.2553125 269.50089844 38.21375 269.79867188 37.140625 270.10546875 C9.45717902 276.99458317 -20.09990492 271.92147685 -44.87890625 258.48046875 C-47.58166332 256.82595899 -50.14119336 255.06774893 -52.703125 253.203125 C-53.73566406 252.47609375 -54.76820313 251.7490625 -55.83203125 251 C-79.36685092 234.01214561 -93.93839888 208.46379405 -99.703125 180.203125 C-103.70160758 153.59674481 -96.70572374 127.26001445 -81.0625 105.3984375 C-62.59363871 80.76110283 -36.23347851 62.7533458 -5.47583008 57.84790039 C23.62075281 54.23859759 55.58045266 59.79504846 79.38232422 77.77880859 C83.56104338 81.05271264 87.64043458 84.43689656 91.69238281 87.86572266 C93.51107502 89.38166847 95.37856447 90.81551459 97.296875 92.203125 C95.94629386 95.21700573 94.44082725 97.3065927 92.1015625 99.62890625 C91.1566394 100.57189575 91.1566394 100.57189575 90.19262695 101.53393555 C89.52577881 102.18789307 88.85893066 102.84185059 88.171875 103.515625 C87.49406982 104.18698486 86.81626465 104.85834473 86.11791992 105.55004883 C82.13212697 109.4746616 78.08986196 113.29382992 73.81640625 116.90625 C71.86877419 118.56849639 70.06940663 120.35673789 68.296875 122.203125 C64.51527968 120.59773076 61.85399289 118.16508442 58.796875 115.453125 C47.97123624 106.19682941 33.6859605 99.77964929 19.296875 99.203125 C17.50443359 99.12578125 17.50443359 99.12578125 15.67578125 99.046875 C3.6632761 98.69977637 -6.94146196 100.62433647 -17.703125 106.203125 C-18.63898438 106.68523437 -19.57484375 107.16734375 -20.5390625 107.6640625 C-35.91985978 116.08593865 -46.39599574 127.89238047 -52.703125 144.203125 C-53.02410156 145.03070313 -53.34507812 145.85828125 -53.67578125 146.7109375 C-58.81650278 162.3482951 -55.93461381 178.97424704 -49.12890625 193.58203125 C-39.27672585 211.56398288 -23.45096345 223.21807153 -4.078125 229.140625 C15.88971598 233.4638382 33.59903674 228.5366703 51.25634766 219.24731445 C53.296875 218.203125 53.296875 218.203125 55.55224609 217.32104492 C58.02974854 216.18209961 59.52449992 215.28952865 61.296875 213.203125 C62.43447254 208.58925714 62.36841739 204.12220386 62.296875 199.390625 C62.296875 195.03875 62.296875 190.686875 62.296875 186.203125 C77.476875 186.203125 92.656875 186.203125 108.296875 186.203125 C108.97872476 205.93665919 108.97872476 205.93665919 109.12695312 214.41015625 C109.22824739 220.17314794 109.3474356 225.93150991 109.5793457 231.69091797 C110.9023125 265.41309911 110.9023125 265.41309911 104.71166992 272.29199219 C101.26896887 275.09595349 97.6709511 276.8793031 93.50263977 278.35925293 C90.51802655 279.50109352 87.95320934 281.11908469 85.26841736 282.83422852 C53.12472983 302.99376049 12.03953645 306.64283699 -24.390625 298.640625 C-60.76663471 289.44832735 -92.72864345 265.09375687 -111.92871094 233.16503906 C-129.05155071 204.04371302 -135.62525378 170.47513086 -127.30615234 137.49169922 C-117.23582643 99.27338542 -95.20043843 68.43054094 -61.14453125 48.14453125 C-29.0365388 30.03139589 8.87483062 23.13029742 45.171875 32.16796875 C49.28029042 33.33348392 53.29073393 34.72732012 57.296875 36.203125 C58.09029297 36.49493652 58.88371094 36.78674805 59.70117188 37.08740234 C77.90691789 43.88454375 93.03455145 52.16975558 108.296875 64.203125 C111.17963615 62.81749664 113.28907436 61.4837317 115.546875 59.203125 C116.06765625 58.6875 116.5884375 58.171875 117.125 57.640625 C118.50749515 56.25387129 118.50749515 56.25387129 118.296875 54.203125 C116.43772873 52.56610259 114.58429988 51.0648317 112.609375 49.578125 C112.02067627 49.13227051 111.43197754 48.68641602 110.82543945 48.22705078 C100.57751081 40.58170569 89.57606397 34.58049904 78.07763672 29.06982422 C76.58501523 28.34336325 75.11205671 27.57668941 73.64453125 26.80078125 C63.8859196 21.8503024 52.88300797 19.71547496 42.296875 17.203125 C41.23984375 16.93169678 40.1828125 16.66026855 39.09375 16.38061523 C29.33269299 14.02851082 19.90250799 13.65882359 9.921875 13.515625 C8.29945343 13.48235205 6.67705651 13.44785372 5.0546875 13.41210938 C1.13555613 13.32837075 -2.78353048 13.26103901 -6.703125 13.203125 C-6.703125 13.863125 -6.703125 14.523125 -6.703125 15.203125 C-8.64638672 15.42355469 -8.64638672 15.42355469 -10.62890625 15.6484375 C-26.79114804 17.62870649 -41.79304616 21.15192742 -56.22265625 28.9140625 C-58.34862624 30.0188973 -60.30391696 30.80046524 -62.578125 31.515625 C-94.41355517 42.85246556 -118.84182565 76.22870119 -132.74658203 105.39160156 C-137.32937485 115.38755045 -140.41892352 125.45330478 -142.703125 136.203125 C-142.88117676 136.87593506 -143.05922852 137.54874512 -143.24267578 138.24194336 C-145.17795154 146.2105744 -145.00505861 154.22012325 -144.96386719 162.36889648 C-144.95322169 164.86792694 -144.96376853 167.36622681 -144.9765625 169.86523438 C-144.98885249 182.43563889 -144.61786047 195.06174432 -140.328125 207.015625 C-140.10680908 207.63832275 -139.88549316 208.26102051 -139.6574707 208.90258789 C-139.02139342 210.67502538 -138.36300438 212.43941069 -137.703125 214.203125 C-137.39503906 215.06164062 -137.08695313 215.92015625 -136.76953125 216.8046875 C-130.04873043 234.66708256 -120.09902833 250.75694869 -107.703125 265.203125 C-106.90261719 266.18732422 -106.90261719 266.18732422 -106.0859375 267.19140625 C-86.41551347 291.16805824 -51.67110836 308.84638517 -21.703125 314.203125 C-20.95949707 314.34685547 -20.21586914 314.49058594 -19.44970703 314.63867188 C3.04841281 318.90658307 27.50603088 319.52067374 49.6015625 312.984375 C51.76797381 312.35642969 53.9558257 311.80268862 56.1484375 311.2734375 C72.56998353 307.199816 88.6078249 299.34087466 102.49182129 289.74493408 C105.06446861 287.97726186 107.67610505 286.42956835 110.41784668 284.93988037 C115.64702151 281.88684525 120.97825214 278.69009908 123.20327759 272.80622864 C124.6274571 265.84387548 124.28126883 258.78351681 124.078125 251.71875 C124.07070963 249.44904771 124.07037512 247.17931229 124.07678223 244.90960693 C124.07471563 238.96945372 123.97723005 233.03465194 123.85906982 227.0958252 C123.73710818 219.95263131 123.73501339 212.8084953 123.71257019 205.66442871 C123.66527227 194.84053274 123.46687311 184.02891349 123.296875 173.203125 C98.546875 173.203125 73.796875 173.203125 48.296875 173.203125 C48.296875 185.083125 48.296875 196.963125 48.296875 209.203125 C37.296875 213.203125 37.296875 213.203125 34.296875 214.203125 C34.296875 196.053125 34.296875 177.903125 34.296875 159.203125 C68.286875 159.203125 102.276875 159.203125 137.296875 159.203125 C137.65834802 189.12059533 137.65834802 189.12059533 137.74915981 203.91460991 C137.79900522 211.91117403 137.86225033 219.90689188 137.97583008 227.90283203 C138.06572443 234.23437066 138.1236425 240.56527039 138.14367145 246.89742947 C138.15537632 250.24900713 138.18749697 253.59731537 138.24844551 256.94857788 C138.31388228 260.69598273 138.322773 264.43961489 138.31860352 268.1875 C138.350961 269.29017715 138.38331848 270.39285431 138.41665649 271.52894592 C138.3623668 276.04480098 138.25400316 279.01168893 135.36518669 282.60769653 C133.09581005 284.64809915 130.7848089 286.43926786 128.296875 288.203125 C126.95764734 289.28702826 125.62323803 290.37695433 124.296875 291.4765625 C109.72648014 302.89352825 94.27979418 311.86582476 77.296875 319.203125 C76.65991699 319.48140137 76.02295898 319.75967773 75.36669922 320.04638672 C36.2667245 336.81797825 -12.28810787 335.53466302 -51.578125 320.3515625 C-72.09879861 312.13707153 -91.41910621 301.46529393 -107.578125 286.20703125 C-109.57818166 284.32094841 -111.64711498 282.57837839 -113.765625 280.828125 C-126.58661939 269.60331867 -135.6194716 254.03796145 -143.703125 239.203125 C-144.41275391 237.94435547 -144.41275391 237.94435547 -145.13671875 236.66015625 C-148.77084493 229.90136083 -150.93712057 222.72727352 -153.06054688 215.39013672 C-153.71161833 213.17421799 -154.40016814 210.97247476 -155.09375 208.76953125 C-158.23164042 198.55831747 -159.60008744 188.88468581 -159.703125 178.203125 C-159.72213867 177.07165039 -159.74115234 175.94017578 -159.76074219 174.77441406 C-160.117863 152.10016966 -159.78015704 130.21470698 -149.7109375 109.40234375 C-148.49239546 106.7432772 -147.55732307 104.02175943 -146.578125 101.265625 C-138.95932751 81.32161688 -126.41861183 64.4238646 -111.703125 49.203125 C-111.10113281 48.54957031 -110.49914062 47.89601562 -109.87890625 47.22265625 C-93.07343725 29.40123951 -69.63913482 16.88504217 -46.703125 9.203125 C-45.83171875 8.9040625 -44.9603125 8.605 -44.0625 8.296875 C-37.00959179 5.89792663 -29.97231115 3.95907284 -22.640625 2.640625 C-21.95935547 2.51494141 -21.27808594 2.38925781 -20.57617188 2.25976562 C-18.61971637 1.9008002 -16.66144805 1.5517583 -14.703125 1.203125 C-13.81343018 1.02821533 -12.92373535 0.85330566 -12.00708008 0.6730957 C-7.98302369 0.10069427 -4.05932564 0.02190638 0 0 Z " fill="#D2B172" transform="translate(268.703125,98.796875)"/>
<path d="M0 0 C56.91304348 0 56.91304348 0 70.8125 10.3125 C77.2595391 16.93526759 79.18876804 22.2692806 79.4375 31.5 C79.07274771 42.26019266 76.8398712 47.98222771 69.3515625 55.82421875 C65.6345049 59.26342321 62.24991192 62 57 62 C57 62.66 57 63.32 57 64 C57.70125 64.165 58.4025 64.33 59.125 64.5 C66.60020779 68.40010841 70.82298784 78.4378126 75 85.4375 C78.82526445 91.82268487 82.67369063 98.1355046 86.93359375 104.24243164 C88 106 88 106 88 108 C83.95871548 108.1457733 79.91811094 108.23423181 75.875 108.3125 C74.73289062 108.35439453 73.59078125 108.39628906 72.4140625 108.43945312 C71.30546875 108.45556641 70.196875 108.47167969 69.0546875 108.48828125 C68.03874512 108.51446533 67.02280273 108.54064941 65.97607422 108.56762695 C60.56268363 107.53513039 57.81870624 104.19279499 54.83764648 99.84960938 C54.17064773 98.68750432 53.51550799 97.51852904 52.87109375 96.34375 C52.51410904 95.7189978 52.15712433 95.09424561 51.7893219 94.45056152 C50.66075691 92.47319154 49.54784674 90.4876488 48.4375 88.5 C47.32229707 86.51317476 46.20357955 84.52867966 45.07496643 82.54943848 C44.37669769 81.3241277 43.68600741 80.09445381 43.00450134 78.85974121 C40.76683632 74.9227497 38.64302315 71.71966201 35 69 C31.7 68.67 28.4 68.34 25 68 C25 81.2 25 94.4 25 108 C16.75 108 8.5 108 0 108 C0 72.36 0 36.72 0 0 Z " fill="#090808" transform="translate(912,114)"/>
<path d="M0 0 C55.4 0 55.4 0 64 7 C69.52150794 12.70607088 71.34876454 16.96933 71.3125 24.875 C71.32861328 25.56980469 71.34472656 26.26460938 71.36132812 26.98046875 C71.36712951 33.14154221 69.72000928 37.04755704 65.6875 41.625 C58.47368421 48 58.47368421 48 55 48 C55 48.66 55 49.32 55 50 C55.556875 50.06316406 56.11375 50.12632812 56.6875 50.19140625 C63.28396141 51.24996002 67.69560899 53.84918198 72 59 C75.43259537 65.53987942 75.2824475 74.69819793 73.1953125 81.69921875 C69.64106903 88.72191361 63.30105935 94.97596088 55.9375 97.875 C35.46317423 103.72480736 28.35197193 101 0 101 C0 67.67 0 34.34 0 0 Z " fill="#080808" transform="translate(1124,289)"/>
<path d="M0 0 C8.25 0 16.5 0 25 0 C25 14.85 25 29.7 25 45 C39.52 45 54.04 45 69 45 C69 30.15 69 15.3 69 0 C77.25 0 85.5 0 94 0 C94 35.64 94 71.28 94 108 C85.75 108 77.5 108 69 108 C69 92.82 69 77.64 69 62 C54.48 62 39.96 62 25 62 C25 77.18 25 92.36 25 108 C16.75 108 8.5 108 0 108 C0 72.36 0 36.72 0 0 Z " fill="#0B0A0A" transform="translate(797,114)"/>
<path d="M0 0 C-6.28180544 12.98846728 -6.28180544 12.98846728 -11.21484375 14.82421875 C-16.21485818 15.07208271 -19.43408209 13.60725906 -23.1015625 10.2890625 C-30.89915904 4.99439818 -42.88659908 6.21237634 -51.8125 7.4375 C-58.61023045 9.27507175 -63.87858343 14.84942939 -67.70703125 20.53515625 C-70.43223719 25.61644801 -71.85215188 30.25504448 -72 36 C-72.03867187 36.86625 -72.07734375 37.7325 -72.1171875 38.625 C-72.38641895 49.39425793 -70.39088568 59.57994524 -63.28125 68.046875 C-57.15824897 73.91893337 -49.55095061 77.11049709 -41.0625 77.4375 C-35.17310021 77.20040661 -29.65392016 75.57783818 -24 74 C-23.67 68.39 -23.34 62.78 -23 57 C-27.8828125 57.14648438 -27.8828125 57.14648438 -32.765625 57.29296875 C-36 57 -36 57 -38.40234375 55.96484375 C-40.81417401 52.99870532 -40.46643856 50.01479165 -40.3125 46.375 C-40.29799805 45.33472656 -40.29799805 45.33472656 -40.28320312 44.2734375 C-40.1685424 39.1685424 -40.1685424 39.1685424 -39 38 C-36.18859849 37.9113874 -33.40120576 37.88470416 -30.58984375 37.90234375 C-29.84383911 37.90335083 -29.09783447 37.90435791 -28.32922363 37.90539551 C-25.53196687 37.91064311 -22.73473196 37.92460427 -19.9375 37.9375 C-13.688125 37.958125 -7.43875 37.97875 -1 38 C-1 53.84 -1 69.68 -1 86 C-21.63179951 95.6281731 -42.04400445 100.17465516 -64.0625 92.375 C-77.37468042 86.617803 -88.52366643 75.99053106 -94.00390625 62.53515625 C-98.90284913 48.31165544 -99.45932301 30.79187449 -93.4765625 16.87109375 C-86.3106897 2.93745219 -76.08954531 -6.26714687 -61.6875 -12.203125 C-39.51185456 -18.77846173 -17.91507806 -13.61214938 0 0 Z " fill="#070606" transform="translate(669,127)"/>
<path d="M0 0 C8.25 0 16.5 0 25 0 C25.01458252 2.14443604 25.02916504 4.28887207 25.04418945 6.49829102 C25.09462183 13.59907685 25.16123202 20.69964539 25.23571491 27.80021763 C25.28036191 32.10352757 25.31963036 36.40674408 25.34643555 40.71020508 C25.37252536 44.86658319 25.41296742 49.02260067 25.46318626 53.17875481 C25.47981672 54.76105181 25.49135474 56.34341114 25.49761391 57.92578316 C25.50729703 60.14955194 25.53540426 62.37240604 25.56762695 64.59594727 C25.57873001 65.85947525 25.58983307 67.12300323 25.60127258 68.42481995 C26.35005457 75.1387561 29.20098581 80.20098581 34 85 C39.48370523 88.22570896 44.77437569 88.92267443 51 88 C53.28102043 87.12326835 55.30379231 86.1157947 57.40625 84.875 C59 84 59 84 61 84 C64.33005095 77.59605587 66.36905664 72.81086427 66.43237305 65.50415039 C66.4425647 64.79111755 66.45275635 64.07808472 66.46325684 63.34344482 C66.49319608 61.0114334 66.50262304 58.67983397 66.51171875 56.34765625 C66.52857967 54.72096919 66.5467318 53.09429505 66.56611633 51.46763611 C66.61346932 47.20490557 66.64337344 42.94222742 66.66955566 38.67932129 C66.69943571 34.32191628 66.74594034 29.9646915 66.79101562 25.60742188 C66.87688147 17.07168851 66.94276252 8.53597339 67 0 C75.25 0 83.5 0 92 0 C92.09091365 8.88506112 92.16406562 17.76980573 92.20724869 26.65522957 C92.22799013 30.782538 92.25605654 34.90950759 92.30175781 39.03662109 C92.34570234 43.03077323 92.36923773 47.02460261 92.37950897 51.01897812 C92.38681431 52.53139186 92.40107558 54.04379098 92.42292023 55.55606461 C92.61758443 69.61072699 90.83799268 84.86870111 80.875 95.625 C70.1793214 105.57288751 57.11369639 109.78825799 42.6328125 109.3125 C30.24676344 108.24703341 19.2699703 103.86588823 10.5625 94.75 C0.40797222 82.3154535 -0.30653425 68.32046065 -0.1953125 52.9296875 C-0.19157458 51.39698472 -0.1887313 49.86427953 -0.18673706 48.33157349 C-0.17916183 44.33017179 -0.15956714 40.32891916 -0.1373291 36.32757568 C-0.11673775 32.23142512 -0.10770714 28.13525008 -0.09765625 24.0390625 C-0.07631439 16.0259662 -0.04118338 8.01301891 0 0 Z " fill="#090909" transform="translate(685,114)"/>
<path d="M0 0 C52.12837838 0 52.12837838 0 62 9 C68.86982578 16.30011725 70.61257022 23.72843171 70.44140625 33.64453125 C69.41482017 41.44840242 65.06099342 48.01374669 58.87890625 52.78515625 C55.70901188 54.83471373 52.43384836 56.4336832 49 58 C49 60.6807792 49.9710555 61.45557718 51.640625 63.53515625 C52.21119629 64.25421143 52.78176758 64.9732666 53.36962891 65.71411133 C53.99015137 66.48907959 54.61067383 67.26404785 55.25 68.0625 C60.76214514 75.03415733 66.02924221 82.12308607 71.09082031 89.42797852 C71.54811523 90.08725342 72.00541016 90.74652832 72.4765625 91.42578125 C72.90356445 92.04146973 73.33056641 92.6571582 73.77050781 93.29150391 C74.89814049 94.85845654 76.11357248 96.36123994 77.3359375 97.85546875 C79 100 79 100 79 102 C76.10315842 102.10829314 73.21038981 102.18743954 70.3125 102.25 C69.49587891 102.28351563 68.67925781 102.31703125 67.83789062 102.3515625 C64.02582426 102.41329637 61.63720807 102.35774682 58.265625 100.46484375 C55.33065433 97.27179807 52.87461599 93.89443893 50.4375 90.3125 C49.385437 88.79686088 48.33335302 87.28123634 47.28125 85.765625 C46.18732496 84.17720387 45.09357748 82.58866043 44 81 C41.82092917 77.8482204 39.63150573 74.70389424 37.4375 71.5625 C36.93726318 70.83522705 36.43702637 70.1079541 35.92163086 69.35864258 C35.21598999 68.3477356 35.21598999 68.3477356 34.49609375 67.31640625 C34.08544678 66.72287354 33.6747998 66.12934082 33.25170898 65.51782227 C31.89049696 63.718272 31.89049696 63.718272 29 62 C25.04 61.67 21.08 61.34 17 61 C17 74.53 17 88.06 17 102 C11.39 102 5.78 102 0 102 C0 68.34 0 34.68 0 0 Z " fill="#090909" transform="translate(1030,288)"/>
<path d="M0 0 C51.39350913 0 51.39350913 0 59.4375 6.6875 C60.21996094 7.31011719 61.00242187 7.93273437 61.80859375 8.57421875 C67.07236656 14.40096192 68.71436566 20.19482761 68.5625 27.9375 C68.54606445 29.12436401 68.54606445 29.12436401 68.52929688 30.33520508 C68.21020319 38.93212081 65.45245745 43.9298916 59.1875 49.75 C55.35720672 52.87989679 51.28035539 55.52968851 47 58 C47.87398437 59.11181641 47.87398437 59.11181641 48.765625 60.24609375 C55.33806894 68.66724995 61.54198261 77.31515813 67.65185547 86.07617188 C68.86224654 87.80342316 70.08834346 89.51964315 71.31640625 91.234375 C71.95449219 92.12640625 72.59257813 93.0184375 73.25 93.9375 C73.79140625 94.68902344 74.3328125 95.44054687 74.890625 96.21484375 C76 98 76 98 76 100 C60.34303216 101.50547768 60.34303216 101.50547768 55.41015625 98.3359375 C53.30796244 95.67819564 51.6768383 92.94598863 50 90 C48.67587947 88.02338431 47.31289584 86.07717883 45.94677734 84.12939453 C44.50965799 82.07629759 43.09797854 80.00770858 41.69140625 77.93359375 C35.85263327 69.05260685 35.85263327 69.05260685 29 61 C25.04 60.67 21.08 60.34 17 60 C17 73.2 17 86.4 17 100 C11.39 100 5.78 100 0 100 C0 67 0 34 0 0 Z " fill="#0A0A0A" transform="translate(1301,289)"/>
<path d="M0 0 C5.94 0 11.88 0 18 0 C21.81813528 9.00964879 25.38363092 18.09392233 28.87512207 27.23382568 C30.50785523 31.50765728 32.14596536 35.77942289 33.78515625 40.05078125 C34.12582123 40.9385022 34.46648621 41.82622314 34.81747437 42.74084473 C37.33358689 49.28794785 39.87672973 55.82418174 42.43359375 62.35546875 C42.79624832 63.28213852 43.15890289 64.20880829 43.532547 65.16355896 C45.28771106 69.64638378 47.04603136 74.12794539 48.80786133 78.6081543 C49.45009339 80.24655819 50.09226754 81.88498477 50.734375 83.5234375 C51.02126694 84.25004074 51.30815887 84.97664398 51.60374451 85.7252655 C53.57517356 90.76332145 55.33223738 95.85373689 57 101 C54.58145554 101.13536629 52.17050217 101.23420279 49.75 101.3125 C49.06808594 101.35439453 48.38617187 101.39628906 47.68359375 101.43945312 C45.671875 101.48828125 45.671875 101.48828125 42 101 C38 96 38 96 31 77 C16.48 77 1.96 77 -13 77 C-14.65 81.95 -16.3 86.9 -18 92 C-22.18584071 99.59292035 -22.18584071 99.59292035 -25 101 C-27.37402501 101.07116382 -29.75000677 101.08409085 -32.125 101.0625 C-34.04699219 101.04896484 -34.04699219 101.04896484 -36.0078125 101.03515625 C-36.99523438 101.02355469 -37.98265625 101.01195312 -39 101 C-36.85024672 91.40879308 -32.70585585 82.07709631 -29 73 C-28.33291431 71.3126656 -27.66625138 69.625164 -27 67.9375 C-25.7800966 64.87828488 -24.49924896 61.86768266 -23.125 58.875 C-21.36280421 54.95975898 -19.84476408 50.97138125 -18.359375 46.9453125 C-14.7497232 37.24341005 -10.93892523 27.62299633 -7.125 18 C-6.42955774 16.24223883 -5.73424455 14.48442659 -5.0390625 12.7265625 C-3.3610911 8.48369195 -1.6805001 4.24187303 0 0 Z " fill="#0A0A0A" transform="translate(1420,288)"/>
<path d="M0 0 C4.95 0 9.9 0 15 0 C15 33.33 15 66.66 15 101 C3 101 3 101 -1.25 97.1875 C-2.53898353 95.48719449 -3.78913299 93.75679209 -5 92 C-5.56203125 91.23816406 -6.1240625 90.47632813 -6.703125 89.69140625 C-7.97388764 87.96482658 -9.22892367 86.22662004 -10.47265625 84.48046875 C-13.86079791 79.76634535 -17.41197177 75.17411447 -20.9375 70.5625 C-25.27128483 64.89058843 -29.60310048 59.21871041 -33.875 53.5 C-39.79877351 45.57510531 -45.81900382 37.72624523 -52 30 C-52.33 53.43 -52.66 76.86 -53 101 C-57.62 101 -62.24 101 -67 101 C-67 68 -67 35 -67 1 C-54 1 -54 1 -50.89453125 3.3515625 C-50.20746094 4.43179687 -49.52039062 5.51203125 -48.8125 6.625 C-48.41562988 7.21474609 -48.01875977 7.80449219 -47.60986328 8.41210938 C-46.78069943 9.64752103 -45.96915818 10.89493536 -45.17529297 12.15332031 C-43.35416927 15.01476188 -41.35821833 17.75011144 -39.375 20.5 C-38.97845215 21.06074219 -38.5819043 21.62148438 -38.17333984 22.19921875 C-32.2781808 30.51540161 -25.99724663 38.54843654 -19.80029297 46.64013672 C-16.89576039 50.44746137 -14.03612595 54.28739015 -11.1875 58.13671875 C-7.86696932 62.48305622 -4.41683485 66.72895644 -1 71 C-0.67 47.57 -0.34 24.14 0 0 Z " fill="#080808" transform="translate(1731,288)"/>
<path d="M0 0 C0.54527344 0.433125 1.09054687 0.86625 1.65234375 1.3125 C0.28291345 5.30667171 -1.30066221 8.35014468 -4.34765625 11.3125 C-8.22832147 12.07176059 -9.83237063 11.64457296 -13.16015625 9.5 C-14.21203125 8.778125 -15.26390625 8.05625 -16.34765625 7.3125 C-24.6114963 2.89402624 -36.45441935 2.46748815 -45.421875 4.86767578 C-53.69705589 7.82221267 -60.08009375 12.57832515 -64.34765625 20.3125 C-64.77691406 21.08851563 -65.20617188 21.86453125 -65.6484375 22.6640625 C-70.37650501 33.16004742 -70.07391835 46.79374063 -66.22265625 57.5 C-61.61210271 67.59198941 -56.63471622 72.82162336 -46.34765625 77.3125 C-35.51176905 80.45621947 -23.40873013 78.91184806 -13.34765625 74.3125 C-13.01765625 67.7125 -12.68765625 61.1125 -12.34765625 54.3125 C-17.85249296 54.39154591 -17.85249296 54.39154591 -23.35693359 54.49267578 C-25.35469103 54.50723738 -27.35232842 54.41206726 -29.34765625 54.3125 C-30.00765625 53.6525 -30.66765625 52.9925 -31.34765625 52.3125 C-31.34765625 48.6825 -31.34765625 45.0525 -31.34765625 41.3125 C-20.12765625 41.3125 -8.90765625 41.3125 2.65234375 41.3125 C2.81329029 46.92008196 2.95251547 52.51963143 3.03686523 58.12768555 C3.07202423 60.03388641 3.11976246 61.93989908 3.18041992 63.84545898 C3.26554734 66.58885087 3.30507463 69.32974527 3.3359375 72.07421875 C3.3720665 72.92336349 3.4081955 73.77250824 3.44541931 74.64738464 C3.44923912 80.43038941 3.44923912 80.43038941 1.18060303 82.94161987 C-2.84935369 85.91128399 -7.211347 87.62055879 -11.97265625 89.0625 C-12.61460938 89.27003906 -13.2565625 89.47757812 -13.91796875 89.69140625 C-29.16386263 94.53385205 -46.03805386 93.73656887 -60.59765625 87.0625 C-69.06641015 82.50240175 -74.44952325 76.49050378 -79.34765625 68.3125 C-79.85296875 67.50296875 -80.35828125 66.6934375 -80.87890625 65.859375 C-88.06098913 53.40533766 -88.27162122 38.42395328 -84.72265625 24.75 C-80.28570011 11.45459136 -72.10003882 1.40428588 -59.83203125 -5.47265625 C-40.63248993 -14.8611112 -17.24357647 -12.3947172 0 0 Z " fill="#090909" transform="translate(1848.34765625,297.6875)"/>
<path d="M0 0 C5.61 0 11.22 0 17 0 C17.11364195 8.88505244 17.20508084 17.76961039 17.25906086 26.65522957 C17.28498829 30.78263806 17.3200708 34.90951716 17.37719727 39.03662109 C17.43212819 43.03079185 17.4615467 47.02445835 17.47438622 51.01897812 C17.48351807 52.53142088 17.50134537 54.04384077 17.52865028 55.55606461 C17.74818211 68.23613871 16.14663029 79.50478295 7.6875 89.5625 C-1.02491481 98.33242249 -10.70949433 102.28971163 -23.09326172 102.51928711 C-24.01123535 102.51292236 -24.92920898 102.50655762 -25.875 102.5 C-27.31963623 102.49141968 -27.31963623 102.49141968 -28.79345703 102.48266602 C-40.46642564 102.19020173 -48.91947372 98.45317191 -57 90 C-66.92717874 79.24555636 -67.29852245 66.36962275 -67.1953125 52.46484375 C-67.19157537 50.97555228 -67.18873171 49.48625832 -67.18673706 47.9969635 C-67.17915567 44.10569287 -67.15955544 40.21457511 -67.1373291 36.32336426 C-67.11675127 32.34124824 -67.10770999 28.35910716 -67.09765625 24.37695312 C-67.07630347 16.58455815 -67.04116721 8.7923201 -67 1 C-61.39 1 -55.78 1 -50 1 C-49.98018066 2.89685547 -49.96036133 4.79371094 -49.93994141 6.74804688 C-49.87197453 13.03854009 -49.7951849 19.32887806 -49.71247292 25.61919403 C-49.66267889 29.43033763 -49.61634846 33.24145577 -49.578125 37.05273438 C-49.54105736 40.7357388 -49.49464151 44.41852095 -49.44193649 48.10133362 C-49.42350595 49.50138929 -49.40835685 50.9014924 -49.39665604 52.30162048 C-49.29778606 63.73075842 -48.79671734 73.06187134 -41 82 C-35.44089823 87.03287612 -27.89328836 86.69054073 -20.796875 86.38671875 C-14.74020899 85.7698361 -11.27445904 84.08492079 -6.75 79.9375 C-1.12558858 70.49652369 -0.39698306 61.22481879 -0.390625 50.48828125 C-0.37561021 49.02424827 -0.35887626 47.56023202 -0.34051514 46.09623718 C-0.29719842 42.28068171 -0.27692287 38.46535454 -0.26177979 34.64959717 C-0.24207845 30.74087215 -0.20012409 26.83238915 -0.16015625 22.92382812 C-0.08524153 15.2825871 -0.03677932 7.64153718 0 0 Z " fill="#070706" transform="translate(903,288)"/>
<path d="M0 0 C5.61 0 11.22 0 17 0 C17.06813227 8.39808815 17.12301968 16.79595666 17.15543652 25.1942482 C17.17100523 29.09509915 17.19207974 32.99574907 17.22631836 36.89648438 C17.25922949 40.67016285 17.27691889 44.44364957 17.28463173 48.21746063 C17.29011891 49.64777387 17.30083163 51.07807819 17.31719017 52.50830841 C17.47847077 67.21147212 15.42115095 80.9448612 5.1796875 92.109375 C-4.68849269 100.6688718 -16.69107012 102.52262681 -29.28125 102.30859375 C-39.95042565 101.42323149 -48.08424114 96.32540544 -55.25 88.5625 C-55.8275 87.716875 -56.405 86.87125 -57 86 C-57.63035156 85.10667969 -57.63035156 85.10667969 -58.2734375 84.1953125 C-64.6398675 74.73766793 -64.27437838 65.14513679 -64.1953125 54.125 C-64.19157672 52.58943873 -64.18873242 51.05387506 -64.18673706 49.51831055 C-64.17914503 45.50044025 -64.15953525 41.48271734 -64.1373291 37.46490479 C-64.11677459 33.35552971 -64.10771491 29.24613055 -64.09765625 25.13671875 C-64.07628461 17.09107107 -64.04113925 9.04557091 -64 1 C-58.72 1 -53.44 1 -48 1 C-47.9906543 2.94696777 -47.98130859 4.89393555 -47.97167969 6.89990234 C-47.93601546 13.36608879 -47.88213133 19.83192761 -47.81609726 26.29787254 C-47.77675512 30.21438535 -47.74450232 34.13067779 -47.72900391 38.04736328 C-47.71374894 41.83427321 -47.67914992 45.62057676 -47.63169098 49.40721512 C-47.61696748 50.844679 -47.60896422 52.28222949 -47.60811615 53.71976852 C-47.5964891 63.55497192 -46.50726916 71.43674546 -41.1875 79.875 C-35.70065337 85.20507958 -31.65367303 86.41320406 -24.0625 86.5 C-18.06292079 86.40431293 -12.5980019 86.19720755 -8 82 C-2.60594137 75.51045926 -0.90166348 70.58736926 -0.79467773 62.21191406 C-0.78477814 61.53833359 -0.77487854 60.86475311 -0.76467896 60.17076111 C-0.73318342 57.95241771 -0.70835403 55.73405293 -0.68359375 53.515625 C-0.66301389 51.97433934 -0.64201715 50.4330592 -0.62062073 48.89178467 C-0.5655066 44.84108962 -0.51605046 40.79034453 -0.46777344 36.73956299 C-0.41748044 32.60367394 -0.36183513 28.46785728 -0.30664062 24.33203125 C-0.19918946 16.22141379 -0.0982105 8.11073462 0 0 Z " fill="#0B0B0B" transform="translate(1626,288)"/>
<path d="M0 0 C22.11 0 44.22 0 67 0 C67 4.62 67 9.24 67 14 C50.83 14 34.66 14 18 14 C18 23.9 18 33.8 18 44 C30.54 44 43.08 44 56 44 C56 48.29 56 52.58 56 57 C43.46 57 30.92 57 18 57 C18 67.23 18 77.46 18 88 C33.84 88 49.68 88 66 88 C66 92.29 66 96.58 66 101 C44.22 101 22.44 101 0 101 C0 67.67 0 34.34 0 0 Z " fill="#090909" transform="translate(750,288)"/>
<path d="M0 0 C21.12 0 42.24 0 64 0 C64 4.62 64 9.24 64 14 C48.49 14 32.98 14 17 14 C17 23.9 17 33.8 17 44 C29.21 44 41.42 44 54 44 C54 48.29 54 52.58 54 57 C41.79 57 29.58 57 17 57 C17 67.23 17 77.46 17 88 C32.51 88 48.02 88 64 88 C64 92.62 64 97.24 64 102 C42.88 102 21.76 102 0 102 C0 68.34 0 34.68 0 0 Z " fill="#0E0E0E" transform="translate(1218,288)"/>
<path d="M0 0 C21.12 0 42.24 0 64 0 C64 3.96 64 7.92 64 12 C48.49 12 32.98 12 17 12 C17 22.56 17 33.12 17 44 C29.21 44 41.42 44 54 44 C54 47.96 54 51.92 54 56 C41.79 56 29.58 56 17 56 C17 66.23 17 76.46 17 87 C32.51 87 48.02 87 64 87 C64 91.29 64 95.58 64 100 C42.88 100 21.76 100 0 100 C0 67 0 34 0 0 Z " fill="#040404" transform="translate(945,289)"/>
<path d="M0 0 C0.90427734 -0.020625 1.80855469 -0.04125 2.74023438 -0.0625 C11.23738854 -0.11108987 19.06463532 1.35840467 26.0625 6.4375 C26.80757812 6.96730469 27.55265625 7.49710937 28.3203125 8.04296875 C28.85398437 8.44128906 29.38765625 8.83960938 29.9375 9.25 C28.61889111 13.86513112 26.72394563 17.34897612 23.9375 21.25 C18.51169127 20.82444637 16.03894754 19.72045561 11.9375 16.25 C6.07023982 13.52104178 -0.39782066 13.20697588 -6.6015625 14.97265625 C-10.15125546 16.4006272 -12.5624223 17.68930682 -15.125 20.5625 C-16.82454539 25.43453011 -16.74182225 28.83700971 -14.5 33.5 C-11.65149185 36.7137015 -9.00474127 37.88508474 -5.0625 39.25 C-3.58145095 39.84953741 -2.10244677 40.45413956 -0.625 41.0625 C2.52250066 42.33212066 5.68408999 43.51912784 8.890625 44.62890625 C25.62753566 50.48420408 25.62753566 50.48420408 30.375 59.25 C33.15400351 66.47055497 33.23210787 74.2338807 30.8671875 81.5703125 C26.51329318 91.06322962 20.51879613 96.61513609 10.91796875 100.5234375 C0.29374998 104.42107989 -13.62476906 103.37864504 -24.140625 99.60546875 C-29.10393603 97.30297018 -33.61490634 94.42303275 -38.0625 91.25 C-35.55332382 83.37336868 -35.55332382 83.37336868 -32.0625 80.25 C-26.54113724 79.22059338 -23.87936881 80.06606891 -19.25 83.1875 C-18.15751953 84.00541016 -18.15751953 84.00541016 -17.04296875 84.83984375 C-12.93514511 87.76474382 -8.59329128 87.50077581 -3.75 87.5625 C-3.00298828 87.59150391 -2.25597656 87.62050781 -1.48632812 87.65039062 C3.80446192 87.71077717 6.76186313 86.77184439 10.9375 83.25 C13.98176425 80.12800985 14.44163479 77.69318445 14.5625 73.375 C14.61664062 72.36695313 14.67078125 71.35890625 14.7265625 70.3203125 C13.5407417 65.70617808 10.95003798 63.6661519 6.9375 61.25 C3.56851196 59.90240479 0.14909864 59.03315793 -3.375 58.1875 C-14.55456179 55.22338296 -24.5064653 52.54967951 -31.0625 42.25 C-34.04125787 35.13684576 -34.77247884 24.7057769 -32 17.3125 C-24.15364266 4.91019323 -14.46285406 0.08007116 0 0 Z " fill="#090909" transform="translate(610.0625,287.75)"/>
<path d="M0 0 C6.42150475 4.56892904 10.19714384 10.83237916 12.25 18.375 C13.2157108 28.48127579 12.65462297 37.24265567 6.63671875 45.62109375 C1.91605868 51.3256608 -4.04323316 56.71989012 -11.69384766 57.59814453 C-29.25341389 58.51274652 -29.25341389 58.51274652 -36.75 53.375 C-37.36875 52.98570312 -37.9875 52.59640625 -38.625 52.1953125 C-44.83860227 47.66902464 -48.55860508 40.14780025 -50.39453125 32.79296875 C-51.76722458 23.45563718 -50.55634119 15.0411484 -45.20703125 7.078125 C-33.48629781 -7.19059398 -15.62484888 -9.42201942 0 0 Z " fill="#5B7385" transform="translate(838.75,452.625)"/>
<path d="M0 0 C5.84504439 4.53833976 9.2453954 11.8958387 11.1875 18.875 C12.29541534 29.02659639 10.18629173 36.30581536 5.4375 45.125 C0.7838962 50.81273798 -5.47696099 55.50100585 -12.8125 56.875 C-22.91346731 57.73624037 -32.33997332 57.67843023 -40.796875 51.40234375 C-46.70480605 46.06248299 -51.41511887 37.88460802 -52.05078125 29.87109375 C-52.28282692 18.74511432 -50.49289716 10.83503546 -42.734375 2.62890625 C-30.22559899 -8.78662308 -14.08115095 -8.69627125 0 0 Z " fill="#5B7385" transform="translate(625.8125,453.125)"/>
<path d="M0 0 C36.62789474 0 36.62789474 0 45.27734375 8.16796875 C52.94289526 16.32022194 53.546199 23.93653812 53.3125 34.53125 C52.91720127 42.424048 50.0807696 48.74205774 44.71484375 54.53125 C38.83350647 59.56856849 32.27530729 61.15496774 24.70703125 61.09765625 C23.41514893 61.09515869 22.1232666 61.09266113 20.79223633 61.09008789 C19.14892334 61.08098389 17.50561035 61.07187988 15.8125 61.0625 C7.9853125 61.0315625 7.9853125 61.0315625 0 61 C0 40.87 0 20.74 0 0 Z " fill="#5B7385" transform="translate(997,448)"/>
<path d="M0 0 C27.39 0 54.78 0 83 0 C83 4.62 83 9.24 83 14 C72.44 14 61.88 14 51 14 C51 43.04 51 72.08 51 102 C45.06 102 39.12 102 33 102 C33 73.29 33 44.58 33 15 C22.11 15 11.22 15 0 15 C0 10.05 0 5.1 0 0 Z " fill="#0E0E0E" transform="translate(651,288)"/>
<path d="M0 0 C34.41176471 0 34.41176471 0 42 6 C44.7646228 10.41584802 44.64626465 14.94956144 44 20 C41.78970759 24.5024475 39.46884445 26.76557777 35 29 C35.54269531 29.31453125 36.08539062 29.6290625 36.64453125 29.953125 C37.35996094 30.38109375 38.07539062 30.8090625 38.8125 31.25 C39.87404297 31.87648438 39.87404297 31.87648438 40.95703125 32.515625 C43.99153574 34.7204275 45.76535224 36.60591623 46.3984375 40.3671875 C46.34249229 46.3533251 45.95308523 50.87719723 41.640625 55.4375 C38.60249309 58.19374339 36.09171537 59.63896629 32 60 C32 60.66 32 61.32 32 62 C21.44 62 10.88 62 0 62 C0 41.54 0 21.08 0 0 Z " fill="#597183" transform="translate(727,448)"/>
<path d="M0 0 C26.07 0 52.14 0 79 0 C79 4.29 79 8.58 79 13 C78.67 13.33 78.34 13.66 78 14 C67.77 14 57.54 14 47 14 C47 42.71 47 71.42 47 101 C41.72 101 36.44 101 31 101 C31 72.29 31 43.58 31 14 C20.77 14 10.54 14 0 14 C0 9.38 0 4.76 0 0 Z " fill="#0A0A0A" transform="translate(1470,288)"/>
<path d="M0 0 C1.65 0 3.3 0 5 0 C5 137.61 5 275.22 5 417 C3.35 417 1.7 417 0 417 C0 279.39 0 141.78 0 0 Z " fill="#D3B072" transform="translate(471,100)"/>
<path d="M0 0 C32.34375 0 32.34375 0 40 7 C43.41312945 12.11969417 42.76381188 18.04095041 42 24 C39.82011184 28.76319719 36.8977817 32.03317428 32 34 C31.01 34 30.02 34 29 34 C29.36762451 34.49814209 29.73524902 34.99628418 30.11401367 35.50952148 C31.810602 37.81490914 33.49905924 40.12613934 35.1875 42.4375 C35.76564453 43.22060547 36.34378906 44.00371094 36.93945312 44.81054688 C40.72525284 50.00800073 44.01880506 55.3025863 47 61 C43.1729293 61.46066961 39.81508013 61.73307358 36 61 C32.85933629 58.51389144 31.04092136 55.41132419 29 52 C28.05447266 50.54400391 28.05447266 50.54400391 27.08984375 49.05859375 C25.36029276 46.39146276 23.67752364 43.69997208 22 41 C21.34 40.01 20.68 39.02 20 38 C17.03 37.67 14.06 37.34 11 37 C11 45.25 11 53.5 11 62 C7.37 62 3.74 62 0 62 C0 41.54 0 21.08 0 0 Z " fill="#5B7385" transform="translate(935,448)"/>
<path d="M0 0 C31.13333333 0 31.13333333 0 38.625 5.8125 C41.96002989 10.2909687 41.82388384 15.20307687 41.59375 20.60546875 C40.73497767 25.51516056 38.77998046 28.77487906 35 32 C32.3188961 33.60034884 31.19066642 34 28 34 C29.051875 35.43279297 29.051875 35.43279297 30.125 36.89453125 C32.09193344 39.57399579 34.05622404 42.25537769 36.01953125 44.9375 C37.84059911 47.42401422 39.66966112 49.90400168 41.51171875 52.375 C42.22972656 53.344375 42.94773437 54.31375 43.6875 55.3125 C44.65236328 56.60607422 44.65236328 56.60607422 45.63671875 57.92578125 C47 60 47 60 47 62 C43.1440253 62.70173069 39.83768938 62.88562063 36 62 C32.53757441 58.85794119 30.36403686 55.00467843 28 51 C26.93191092 49.19326489 25.85276127 47.39969762 24.73095703 45.62573242 C23.67592715 43.95561778 22.66862319 42.25563688 21.6640625 40.5546875 C18.40317142 36.90189968 18.40317142 36.90189968 9 37 C9 44.92 9 52.84 9 61 C6.03 61 3.06 61 0 61 C0 40.87 0 20.74 0 0 Z " fill="#5B7385" transform="translate(1332,448)"/>
<path d="M0 0 C10 0 10 0 11.99462891 1.66015625 C12.35991699 2.45292969 12.72520508 3.24570312 13.1015625 4.0625 C13.55950195 4.97644531 14.01744141 5.89039063 14.48925781 6.83203125 C14.98780273 7.87746094 15.48634766 8.92289062 16 10 C16.98248344 11.79924062 17.99472889 13.57954136 19.01019287 15.36035156 C20.45930926 17.90586325 21.87288502 20.47046147 23.28857422 23.03466797 C24.38984956 25.0268627 25.49759395 27.0153756 26.60546875 29.00390625 C27.30768714 30.27321879 28.00952473 31.5427421 28.7109375 32.8125 C29.65912354 34.52373047 29.65912354 34.52373047 30.62646484 36.26953125 C32 39 32 39 32 41 C32.66 41 33.32 41 34 41 C34.09369873 40.31083496 34.18739746 39.62166992 34.28393555 38.91162109 C35.15961191 35.350995 36.66753663 32.61527204 38.45703125 29.4140625 C38.80126633 28.79405365 39.1455014 28.1740448 39.50016785 27.5352478 C40.59797591 25.56157278 41.70508989 23.59330026 42.8125 21.625 C43.5455339 20.31023688 44.27796174 18.99513565 45.00976562 17.6796875 C48.30474756 11.7662602 51.63605287 5.87441816 55 0 C58.3 0 61.6 0 65 0 C65 20.13 65 40.26 65 61 C62.36 61 59.72 61 57 61 C57 46.15 57 31.3 57 16 C56.34 16 55.68 16 55 16 C54.74549072 16.84328857 54.49098145 17.68657715 54.22875977 18.55541992 C52.90447529 22.26778426 51.20937084 25.65718358 49.33984375 29.11328125 C48.9899086 29.76830124 48.63997345 30.42332123 48.2794342 31.09819031 C47.5445289 32.47166947 46.80738715 33.84395411 46.06811523 35.21508789 C44.93289616 37.32104062 43.80476843 39.43067312 42.67773438 41.54101562 C41.96134517 42.87782271 41.24456234 44.21441896 40.52734375 45.55078125 C40.18879868 46.18301102 39.8502536 46.81524078 39.50144958 47.46662903 C37.1167545 51.8832455 37.1167545 51.8832455 36 53 C34.00041636 53.04080783 31.99954746 53.04254356 30 53 C29.6376123 52.35562988 29.27522461 51.71125977 28.90185547 51.04736328 C27.22768637 48.07242391 25.55135506 45.09870811 23.875 42.125 C23.30523438 41.11179687 22.73546875 40.09859375 22.1484375 39.0546875 C18.91680597 33.32588616 15.62014819 27.65355816 12.16845703 22.05419922 C11 20 11 20 10 17 C9.67 31.85 9.34 46.7 9 62 C6.03 62 3.06 62 0 62 C0 41.54 0 21.08 0 0 Z " fill="#587082" transform="translate(1392,448)"/>
<path d="M0 0 C3.96 0 7.92 0 12 0 C12.556875 1.753125 13.11375 3.50625 13.6875 5.3125 C15.36533297 10.34599892 17.33160379 15.09592747 19.58203125 19.89453125 C25.82497103 33.56708532 31.39431439 47.69813417 36 62 C32.7 62 29.4 62 26 62 C25.0234375 59.78645833 24.046875 57.57291667 23.0703125 55.359375 C22.38421211 53.84694933 21.65294319 52.35375628 20.8671875 50.890625 C20 49 20 49 20 46 C10.76 46.33 1.52 46.66 -8 47 C-9.32 50.96 -10.64 54.92 -12 59 C-12.66 59.99 -13.32 60.98 -14 62 C-17.33926306 62.41056513 -20.64335548 62.12910171 -24 62 C-21.94981949 54.65050487 -19.37843868 47.62461021 -16.5 40.5625 C-16.07219238 39.50297119 -15.64438477 38.44344238 -15.20361328 37.35180664 C-13.80759765 33.89907531 -12.40443751 30.44931361 -11 27 C-10.48654927 25.73669606 -9.97320476 24.47334895 -9.45996094 23.20996094 C-6.315107 15.46984485 -3.16075623 7.73363739 0 0 Z " fill="#5D7587" transform="translate(885,448)"/>
<path d="M0 0 C9 0 9 0 12.15234375 3.04296875 C13.11021214 4.40420299 14.03739956 5.78739654 14.9375 7.1875 C15.96258937 8.66472378 16.98864501 10.14127747 18.015625 11.6171875 C18.76682617 12.72852051 18.76682617 12.72852051 19.53320312 13.86230469 C21.64065114 16.93367866 23.89859823 19.87521855 26.1875 22.8125 C26.98542969 23.84632813 27.78335938 24.88015625 28.60546875 25.9453125 C34.98799971 34.24859157 34.98799971 34.24859157 42 42 C42.33 28.14 42.66 14.28 43 0 C46.3 0 49.6 0 53 0 C53 20.46 53 40.92 53 62 C44 62 44 62 41.89941406 60.50976562 C41.44276367 59.81560547 40.98611328 59.12144531 40.515625 58.40625 C39.97945557 57.63071777 39.44328613 56.85518555 38.89086914 56.05615234 C38.07863892 54.79085693 38.07863892 54.79085693 37.25 53.5 C36.04924904 51.75007602 34.84474531 50.00272185 33.63671875 48.2578125 C33.03520996 47.37512695 32.43370117 46.49244141 31.81396484 45.58300781 C29.08154863 41.69216481 26.09779323 38.03159372 23.0625 34.375 C18.60627923 28.98674069 14.29699994 23.5247142 10 18 C9.67 32.52 9.34 47.04 9 62 C6.03 62 3.06 62 0 62 C0 41.54 0 21.08 0 0 Z " fill="#5E7587" transform="translate(654,448)"/>
<path d="M0 0 C8 0 8 0 10.07421875 1.58984375 C10.87279297 2.75193359 10.87279297 2.75193359 11.6875 3.9375 C12.34363281 4.84757812 12.99976563 5.75765625 13.67578125 6.6953125 C14.03752441 7.21512695 14.39926758 7.73494141 14.77197266 8.27050781 C16.6713375 10.9454781 18.68593353 13.52932289 20.68945312 16.12670898 C22.37810357 18.31652466 24.05558675 20.51448462 25.73046875 22.71484375 C29.48944167 27.64745769 33.28012383 32.55531559 37.07421875 37.4609375 C38.44179957 39.26403595 39.74468008 41.11702012 41 43 C41.33 28.81 41.66 14.62 42 0 C44.97 0 47.94 0 51 0 C51 20.13 51 40.26 51 61 C43 61 43 61 40.671875 59.15625 C40.03765625 58.2796875 39.4034375 57.403125 38.75 56.5 C37.99976563 55.49582031 37.24953125 54.49164063 36.4765625 53.45703125 C36.07985352 52.90225098 35.68314453 52.3474707 35.27441406 51.77587891 C33.92543379 49.89609298 32.54195151 48.04620738 31.1484375 46.19921875 C29.11719515 43.50665706 27.09615819 40.80694735 25.08203125 38.1015625 C22.048132 34.04412094 18.94552616 30.04373063 15.8125 26.0625 C15.34279785 25.46526123 14.8730957 24.86802246 14.38916016 24.25268555 C12.29553665 21.53863548 12.29553665 21.53863548 10 19 C9.67 33.19 9.34 47.38 9 62 C6.03 62 3.06 62 0 62 C0 41.54 0 21.08 0 0 Z " fill="#5B7486" transform="translate(1098,448)"/>
<path d="M0 0 C3.80652411 3.22727044 7.54581416 6.85192921 8.28759766 11.9934082 C8.4034556 14.3154158 8.40915627 16.61297583 8.375 18.9375 C8.38660156 19.72318359 8.39820313 20.50886719 8.41015625 21.31835938 C8.37387427 28.54452114 6.00520275 33.70878566 1 39 C-5.98671123 43.17387944 -13.62208649 43.19603439 -21.4765625 41.44921875 C-26.4233162 39.43422834 -29.40715222 35.81059499 -31.93359375 31.19140625 C-34.35524445 23.94419519 -34.50939459 14.83048779 -31.70703125 7.71875 C-28.66896427 2.88008955 -24.43270013 -0.60119743 -19.5 -3.4375 C-12.03915485 -5.11619016 -6.50735276 -3.83224599 0 0 Z " fill="#FAFAFB" transform="translate(832,459)"/>
<path d="M0 0 C1.21171875 -0.02578125 2.4234375 -0.0515625 3.671875 -0.078125 C10.0963658 0.51102044 14.11351642 3.44273529 18.25 8.25 C22.46970483 15.38791034 22.22432796 22.96294907 20.74609375 30.984375 C19.00863091 36.90167701 16.03459606 40.18789373 11.08203125 43.85546875 C7.46765815 45.63523592 4.25413597 45.72775812 0.3125 45.6875 C-0.72293945 45.7174707 -0.72293945 45.7174707 -1.77929688 45.74804688 C-6.92323113 45.74317111 -9.78529259 44.44526049 -13.75 41.25 C-20.11402987 34.35563431 -20.35478457 27.33286442 -20.12890625 18.37109375 C-19.74858399 12.29547966 -17.43698326 8.84500828 -13.15234375 4.70703125 C-8.59791449 0.71211419 -5.98068957 0.07570493 0 0 Z " fill="#FAFAFB" transform="translate(604.75,455.75)"/>
<path d="M0 0 C0.81984375 0.67482422 0.81984375 0.67482422 1.65625 1.36328125 C0.58223892 4.27845417 -0.12185176 6.14138301 -2.34375 8.36328125 C-4.98873314 8.0798902 -6.57814068 7.21678708 -8.84375 5.80078125 C-16.03849023 2.84579865 -25.18638506 3.45181077 -32.34375 6.36328125 C-37.19270493 10.73111419 -40.15672461 14.43526083 -40.58203125 21.09375 C-40.98783358 32.36403474 -40.98783358 32.36403474 -36.34375 42.36328125 C-31.36994545 47.20955235 -26.70752811 48.64535498 -19.84375 48.61328125 C-18.7403125 48.6184375 -17.636875 48.62359375 -16.5 48.62890625 C-12.9395282 48.48407045 -12.9395282 48.48407045 -8.34375 46.36328125 C-8.01375 42.40328125 -7.68375 38.44328125 -7.34375 34.36328125 C-10.64375 34.36328125 -13.94375 34.36328125 -17.34375 34.36328125 C-17.34375 31.72328125 -17.34375 29.08328125 -17.34375 26.36328125 C-10.74375 26.36328125 -4.14375 26.36328125 2.65625 26.36328125 C2.65625 34.61328125 2.65625 42.86328125 2.65625 51.36328125 C-9.45734273 57.42007761 -20.20424744 59.89815689 -33.703125 56.5234375 C-41.46034976 52.94595962 -46.53109164 46.86054423 -49.71875 39.05078125 C-50.28036881 37.49534133 -50.82498146 35.93353226 -51.34375 34.36328125 C-51.83875 32.87828125 -51.83875 32.87828125 -52.34375 31.36328125 C-53.42272807 21.51375291 -51.60603072 12.92514862 -45.51171875 4.97265625 C-33.86165345 -7.43569733 -14.30921104 -9.99259904 0 0 Z " fill="#5E7688" transform="translate(1218.34375,452.63671875)"/>
<path d="M0 0 C20 0 20 0 28 5 C33.70689215 12.3165284 33.54817584 19.00404298 33 28 C31.93825235 33.48829852 30.06557063 38.05058853 26 42 C20 45 20 45 0 45 C0 30.15 0 15.3 0 0 Z " fill="#FBFBFB" transform="translate(1007,456)"/>
<path d="M0 0 C4.970625 -0.103125 9.94125 -0.20625 15.0625 -0.3125 C16.61718994 -0.35802002 18.17187988 -0.40354004 19.77368164 -0.45043945 C31.18113099 -0.56520253 31.18113099 -0.56520253 35.37109375 2.33203125 C39.56590236 6.58916986 40.33087704 8.92314922 40.4375 14.8125 C40.3171744 22.59355559 40.3171744 22.59355559 37.875 25.6875 C31.67362584 30.67556183 26.09214774 32.1395302 18.26171875 32.09765625 C17.29967529 32.09515869 16.33763184 32.09266113 15.34643555 32.09008789 C14.13898682 32.08098389 12.93153809 32.07187988 11.6875 32.0625 C7.830625 32.041875 3.97375 32.02125 0 32 C0 21.44 0 10.88 0 0 Z " fill="#F4F4F5" transform="translate(1141,345)"/>
<path d="M0 0 C5.4759375 -0.0928125 5.4759375 -0.0928125 11.0625 -0.1875 C12.76805054 -0.22846802 12.76805054 -0.22846802 14.50805664 -0.27026367 C21.20723424 -0.32503497 26.42352997 -0.00712166 31.7421875 4.46484375 C35.85411997 9.81035596 36.8565287 14.2578955 36 21 C34.36885085 26.33562642 31.6904195 29.7934159 27.171875 32.9921875 C17.99635893 37.249891 10.35004322 36 0 36 C0 24.12 0 12.24 0 0 Z " fill="#F5F5F5" transform="translate(1047,302)"/>
<path d="M0 0 C3.609375 -0.061875 7.21875 -0.12375 10.9375 -0.1875 C12.61573853 -0.22846802 12.61573853 -0.22846802 14.32788086 -0.27026367 C22.15230522 -0.33458538 28.84897627 0.37414689 35 5.5 C38.09660705 9.37075881 38.40619865 12.79300343 38.34375 17.5859375 C37.54347358 23.20606053 34.28721876 26.95413476 30 30.4375 C25.5754827 32.74193609 21.64046532 33.12655243 16.69921875 33.09765625 C15.81838623 33.09515869 14.93755371 33.09266113 14.0300293 33.09008789 C12.92699463 33.08098389 11.82395996 33.07187988 10.6875 33.0625 C5.3971875 33.0315625 5.3971875 33.0315625 0 33 C0 22.11 0 11.22 0 0 Z " fill="#F1F1F1" transform="translate(1141,301)"/>
<path d="M0 0 C0.55300781 0.44988281 1.10601563 0.89976562 1.67578125 1.36328125 C1.06300513 4.32503248 0.42205603 5.74386908 -1.32421875 8.36328125 C-3.84327903 7.8967886 -5.37579623 7.32741734 -7.50390625 5.84765625 C-11.09079821 3.95981838 -13.72348395 3.92984795 -17.76171875 3.92578125 C-19.03917969 3.90644531 -20.31664062 3.88710938 -21.6328125 3.8671875 C-26.93502722 4.57976027 -29.95556859 6.91859497 -33.57421875 10.73828125 C-38.36801689 17.92897846 -38.04821443 26.02392359 -37.32421875 34.36328125 C-35.540732 40.81275496 -31.88671953 44.32756652 -26.13671875 47.61328125 C-20.1582963 49.20752724 -14.51915557 49.28883289 -8.94921875 46.42578125 C-8.04042969 45.88630859 -8.04042969 45.88630859 -7.11328125 45.3359375 C-5.15042106 44.26879299 -3.54265343 43.65303598 -1.32421875 43.36328125 C0.92578125 45.30078125 0.92578125 45.30078125 2.67578125 47.36328125 C1.29599247 50.68185017 -0.07334272 52.19401222 -3.13671875 54.05078125 C-3.80316406 54.46714844 -4.46960937 54.88351562 -5.15625 55.3125 C-12.25118443 58.75130606 -22.58296563 58.5783099 -30.12890625 56.64453125 C-37.2494755 53.67163365 -42.64417435 48.10357309 -46.32421875 41.36328125 C-49.70314953 31.60587764 -50.2265488 20.224824 -45.82421875 10.73828125 C-40.83983943 2.18860473 -34.3610851 -2.59973112 -24.94921875 -5.32421875 C-15.92729539 -6.39825725 -7.64187442 -5.38142081 0 0 Z " fill="#5C7486" transform="translate(1313.32421875,452.63671875)"/>
<path d="M0 0 C3.67125 -0.061875 7.3425 -0.12375 11.125 -0.1875 C12.84420654 -0.22846802 12.84420654 -0.22846802 14.59814453 -0.27026367 C21.47218418 -0.32631186 25.84894512 0.44509064 31.3125 4.875 C35.17592862 9.74005826 34.4709894 17.07774443 34 23 C32.26893715 28.19318856 29.50491334 30.94005886 25 34 C17 36 17 36 0 36 C0 24.12 0 12.24 0 0 Z " fill="#F7F7F7" transform="translate(1318,302)"/>
<path d="M0 0 C3.01125 -0.061875 6.0225 -0.12375 9.125 -0.1875 C10.06230957 -0.21481201 10.99961914 -0.24212402 11.96533203 -0.27026367 C17.0744602 -0.32086526 20.59171048 0.12473234 25 3 C29.57725464 8.07209298 30.47696005 11.36643033 30.40625 18.1015625 C29.75150803 22.77289463 27.60497027 26.00879179 24 29 C18.53558661 31.955382 14.19748294 32.39089943 8.0625 32.1875 C4.0715625 32.0946875 4.0715625 32.0946875 0 32 C0 21.44 0 10.88 0 0 Z " fill="#F8F8F8" transform="translate(937,133)"/>
<path d="M0 0 C0.66 0 1.32 0 2 0 C2.37809814 1.01835937 2.75619629 2.03671875 3.14575195 3.0859375 C4.56017223 6.89539352 5.97476357 10.704786 7.3894043 14.51416016 C7.99947639 16.1570467 8.60950324 17.79995005 9.21948242 19.44287109 C10.10062712 21.8161259 10.98193916 24.1893185 11.86328125 26.5625 C12.13215652 27.28679199 12.4010318 28.01108398 12.67805481 28.75732422 C13.06811958 29.80750732 13.06811958 29.80750732 13.46606445 30.87890625 C13.7172403 31.55840332 13.96841614 32.23790039 14.22720337 32.93798828 C14.76107221 34.36248181 15.30692412 35.78252128 15.86239624 37.19873047 C18 42.68887506 18 42.68887506 18 46 C6.78 46 -4.44 46 -16 46 C-14.64402913 39.89813109 -13.25155317 34.51593973 -10.99609375 28.7890625 C-10.57107323 27.68683853 -10.57107323 27.68683853 -10.13746643 26.56234741 C-9.24345572 24.24752933 -8.34076601 21.93622013 -7.4375 19.625 C-6.53269127 17.29160925 -5.62965512 14.95753827 -4.7268219 12.62338257 C-4.1674781 11.17926802 -3.60661833 9.73573949 -3.04405212 8.2928772 C-1.97283095 5.54270586 -0.93352598 2.80057793 0 0 Z " fill="#F2F2F2" transform="translate(1428,306)"/>
<path d="M0 0 C3.63 0 7.26 0 11 0 C11 20.46 11 40.92 11 62 C7.37 62 3.74 62 0 62 C0 41.54 0 21.08 0 0 Z " fill="#5F7687" transform="translate(1067,448)"/>
<path d="M0 0 C1.65 0 3.3 0 5 0 C5 132 5 264 5 400 C4.67 400 4.34 400 4 400 C3.505 393.565 3.505 393.565 3 387 C2.67 387 2.34 387 2 387 C2 383.04 2 379.08 2 375 C2.33 375 2.66 375 3 375 C3 364.11 3 353.22 3 342 C2.67 342 2.34 342 2 342 C2 325.83 2 309.66 2 293 C2.33 293 2.66 293 3 293 C3 199.28 3 105.56 3 9 C2.01 9.33 1.02 9.66 0 10 C0 6.7 0 3.4 0 0 Z " fill="#D5B57C" transform="translate(471,100)"/>
<path d="M0 0 C4.764375 -0.1546875 4.764375 -0.1546875 9.625 -0.3125 C11.1092749 -0.38078003 11.1092749 -0.38078003 12.62353516 -0.45043945 C16.95527099 -0.51830069 20.10082211 -0.45123846 23.609375 2.26953125 C26.78752727 5.89947968 26.78752727 5.89947968 26.625 9 C26.30688535 13.01430397 24.95567118 15.20853277 22 18 C19.10873615 19.73249361 17.02743194 20.24324903 13.671875 20.1953125 C12.9509668 20.19031738 12.23005859 20.18532227 11.48730469 20.18017578 C10.58399414 20.16196777 9.68068359 20.14375977 8.75 20.125 C4.41875 20.063125 4.41875 20.063125 0 20 C0 13.4 0 6.8 0 0 Z " fill="#F4F5F6" transform="translate(737,482)"/>
<path d="M0 0 C2.701875 -0.103125 5.40375 -0.20625 8.1875 -0.3125 C9.02949951 -0.35802002 9.87149902 -0.40354004 10.73901367 -0.45043945 C14.87475328 -0.52663577 16.56715795 -0.31678207 20.015625 2.20703125 C22.68298664 5.96129025 22.65815362 8.16345051 22.42578125 12.625 C21.81862414 16.01171121 20.55074025 17.73267533 18 20 C12.7640356 23.46640236 5.98011239 22.11074282 0 22 C0 14.74 0 7.48 0 0 Z " fill="#F3F4F5" transform="translate(945,456)"/>
<path d="M0 0 C2.68125 -0.0825 5.3625 -0.165 8.125 -0.25 C8.95789551 -0.28641602 9.79079102 -0.32283203 10.64892578 -0.36035156 C16.06637996 -0.44049524 18.7965152 0.56911833 23 4 C24.55950551 5.55950551 24.28196698 7.08877131 24.375 9.25 C24.35044738 13.10476085 24.1491486 13.81160177 21.625 17 C17.19343751 20.37642856 13.76529274 20.1189507 8.375 20.0625 C5.61125 20.041875 2.8475 20.02125 0 20 C0 13.4 0 6.8 0 0 Z " fill="#F2F4F5" transform="translate(737,455)"/>
<path d="M0 0 C3.8053125 -0.12375 3.8053125 -0.12375 7.6875 -0.25 C8.87218872 -0.30462402 8.87218872 -0.30462402 10.08081055 -0.36035156 C13.90260839 -0.42027101 15.63709783 -0.23202728 18.95703125 1.890625 C22.05734112 5.09170976 22.40455067 7.42816129 22.34765625 11.8984375 C21.71520089 15.72159464 19.80915644 17.37812065 17 20 C13.12828353 21.96237684 9.99744802 22.21972413 5.6875 22.125 C3.810625 22.08375 1.93375 22.0425 0 22 C0 14.74 0 7.48 0 0 Z " fill="#F5F6F8" transform="translate(1342,456)"/>
<path d="M0 0 C0.66 0 1.32 0 2 0 C3.51075416 3.91260327 5.00671908 7.83069813 6.5 11.75 C6.92925781 12.86117188 7.35851562 13.97234375 7.80078125 15.1171875 C8.20683594 16.18710937 8.61289062 17.25703125 9.03125 18.359375 C9.40830078 19.34389648 9.78535156 20.32841797 10.17382812 21.34277344 C11 24 11 24 11 28 C4.07 28 -2.86 28 -10 28 C-7.75 17.875 -7.75 17.875 -6.0546875 13.96484375 C-5.70019531 13.13662109 -5.34570312 12.30839844 -4.98046875 11.45507812 C-4.61566406 10.62427734 -4.25085938 9.79347656 -3.875 8.9375 C-3.50246094 8.07189453 -3.12992188 7.20628906 -2.74609375 6.31445312 C-1.83769319 4.20649798 -0.92228806 2.10190666 0 0 Z " fill="#EEF1F2" transform="translate(890,459)"/>
<path d="M0 0 C1.65 0 3.3 0 5 0 C5 38.61 5 77.22 5 117 C4.67 117 4.34 117 4 117 C3.67 81.36 3.34 45.72 3 9 C2.01 9.33 1.02 9.66 0 10 C0 6.7 0 3.4 0 0 Z " fill="#D8B980" transform="translate(471,100)"/>
<path d="M0 0 C11.22 0 22.44 0 34 0 C34 13.2 34 26.4 34 40 C33.67 40 33.34 40 33 40 C33 27.13 33 14.26 33 1 C22.44 1 11.88 1 1 1 C2.12534105 2.35618499 2.12534105 2.35618499 5.0625 2.0625 C6.031875 2.041875 7.00125 2.02125 8 2 C8 2.33 8 2.66 8 3 C6.35 3.33 4.7 3.66 3 4 C3 6.64 3 9.28 3 12 C8.28 12 13.56 12 19 12 C19 12.33 19 12.66 19 13 C16.20807795 13.05380578 13.4171859 13.09357669 10.625 13.125 C9.8309375 13.14175781 9.036875 13.15851563 8.21875 13.17578125 C6.14507985 13.19335473 4.07116759 13.10335168 2 13 C1.34 12.34 0.68 11.68 0 11 C0 7.37 0 3.74 0 0 Z " fill="#454445" transform="translate(1817,339)"/>
<path d="M0 0 C5.28 0 10.56 0 16 0 C15.67 0.99 15.34 1.98 15 3 C10.38 3 5.76 3 1 3 C0.67 2.01 0.34 1.02 0 0 Z " fill="#DEDEDF" transform="translate(1501,389)"/>
<path d="M0 0 C1.95766281 -0.08082094 3.91626728 -0.13910778 5.875 -0.1875 C7.51082031 -0.23970703 7.51082031 -0.23970703 9.1796875 -0.29296875 C10.11039063 -0.19628906 11.04109375 -0.09960938 12 0 C12.66 0.99 13.32 1.98 14 3 C11.27157939 4.36421031 9.39046682 3.87807211 6.375 3.5625 C5.37210938 3.46066406 4.36921875 3.35882813 3.3359375 3.25390625 C2.56507812 3.17011719 1.79421875 3.08632813 1 3 C0.67 2.01 0.34 1.02 0 0 Z " fill="#D3D3D3" transform="translate(1318,349)"/>
<path d="M0 0 C1.65 0 3.3 0 5 0 C5 2.31 5 4.62 5 7 C4.34 7 3.68 7 3 7 C2.67 7.66 2.34 8.32 2 9 C1.01 9.495 1.01 9.495 0 10 C0 6.7 0 3.4 0 0 Z " fill="#E0C38F" transform="translate(471,100)"/>
<path d="M0 0 C0.33 0 0.66 0 1 0 C1.06058594 0.7734375 1.12117188 1.546875 1.18359375 2.34375 C1.65892599 8.25249543 2.20914557 14.12508141 3 20 C0.32266002 17.32968716 -0.00280229 15.96278559 -0.29296875 12.109375 C-0.27314945 10.65595991 -0.23754845 9.20268833 -0.1875 7.75 C-0.17396484 7.00492187 -0.16042969 6.25984375 -0.14648438 5.4921875 C-0.11127204 3.66114584 -0.05746851 1.83047831 0 0 Z " fill="#516A7C" transform="translate(1175,472)"/>
<path d="M0 0 C-0.7734375 0.3403125 -0.7734375 0.3403125 -1.5625 0.6875 C-4.92403127 2.4975553 -7.92911144 4.73996404 -11 7 C-11.66 6.67 -12.32 6.34 -13 6 C-11.87720538 5.01830524 -10.75168527 4.03972702 -9.625 3.0625 C-8.68527344 2.24458984 -8.68527344 2.24458984 -7.7265625 1.41015625 C-4.76764382 -1.00651715 -3.58505602 -1.07551681 0 0 Z " fill="#D9D9DA" transform="translate(1800,306)"/>
<path d="M0 0 C0.66 0.33 1.32 0.66 2 1 C0.92807816 2.3218362 -0.15802695 3.63217927 -1.25 4.9375 C-1.85328125 5.66839844 -2.4565625 6.39929688 -3.078125 7.15234375 C-5.10741134 9.10326334 -6.254407 9.61731779 -9 10 C-8.06409496 8.8944811 -7.12620142 7.79064547 -6.1875 6.6875 C-5.66542969 6.07261719 -5.14335938 5.45773437 -4.60546875 4.82421875 C-3.12827531 3.14575321 -1.59960869 1.56117966 0 0 Z " fill="#1A1A1A" transform="translate(1781,297)"/>
<path d="M0 0 C-0.33 0.99 -0.66 1.98 -1 3 C-0.34 3.66 0.32 4.32 1 5 C-1.31 4.67 -3.62 4.34 -6 4 C-6 3.34 -6 2.68 -6 2 C-2.25 0 -2.25 0 0 0 Z " fill="#C8C8C7" transform="translate(1185,335)"/>
<path d="M0 0 C0.66 0.33 1.32 0.66 2 1 C0.35 2.65 -1.3 4.3 -3 6 C-4.32 5.34 -5.64 4.68 -7 4 C-6.030625 3.525625 -5.06125 3.05125 -4.0625 2.5625 C-1.19522563 1.29806053 -1.19522563 1.29806053 0 0 Z " fill="#718697" transform="translate(1309,496)"/>
<path d="M0 0 C0.66 0 1.32 0 2 0 C2 3.76687864 1.76462683 4.91190305 0 8 C-0.66 8 -1.32 8 -2 8 C-1.125 2.25 -1.125 2.25 0 0 Z " fill="#2F3030" transform="translate(1393,356)"/>
<path d="M0 0 C2.475 0.99 2.475 0.99 5 2 C5 2.99 5 3.98 5 5 C2.69 4.01 0.38 3.02 -2 2 C-1.34 1.34 -0.68 0.68 0 0 Z " fill="#DDDDDD" transform="translate(1182,290)"/>
<path d="M0 0 C0.99 0.33 1.98 0.66 3 1 C1.68 2.65 0.36 4.3 -1 6 C-1.99 5.67 -2.98 5.34 -4 5 C-2.68 3.35 -1.36 1.7 0 0 Z " fill="#D4B87D" transform="translate(145,161)"/>
</svg>
